<svg width="91" height="82" viewBox="0 0 91 82" fill="none" xmlns="http://www.w3.org/2000/svg">
<path d="M28.9096 18.6648L3 62.2526H66.8654H74L54.167 54.9953L53.42 54.6991L60.3924 42.9694L62.7571 38.9914L44.083 34.1314L55.4917 27.7337L47.9447 1.25261L33.252 25.9702L28.9096 18.6648Z" stroke="#757DB2"/>
<path d="M9.84375 76.2526H0.21875V75.9245C0.541667 75.9037 0.802083 75.8672 1 75.8151C1.20833 75.763 1.36458 75.6797 1.46875 75.5651C1.58333 75.4505 1.66146 75.2943 1.70312 75.0964C1.74479 74.8984 1.76562 74.6432 1.76562 74.3307V66.3932C1.76562 66.0807 1.74479 65.8255 1.70312 65.6276C1.67188 65.4297 1.59896 65.2734 1.48438 65.1589C1.36979 65.0443 1.20833 64.9609 1 64.9089C0.802083 64.8568 0.541667 64.8203 0.21875 64.7995V64.4401H9.6875L9.71875 67.0026H9.29688C9.21354 66.5964 9.11979 66.2734 9.01562 66.0339C8.91146 65.7839 8.76042 65.5912 8.5625 65.4557C8.375 65.3203 8.11979 65.2318 7.79688 65.1901C7.48438 65.1484 7.07812 65.1276 6.57812 65.1276H4.17188C3.93229 65.1276 3.77083 65.1641 3.6875 65.237C3.61458 65.3099 3.57812 65.4766 3.57812 65.737V69.6901H6.3125C6.67708 69.6901 6.97396 69.6693 7.20312 69.6276C7.43229 69.5859 7.61458 69.5078 7.75 69.3932C7.89583 69.2682 8.00521 69.0964 8.07812 68.8776C8.15104 68.6589 8.21875 68.3672 8.28125 68.0026H8.70312V72.1432H8.28125C8.21875 71.7682 8.15104 71.4714 8.07812 71.2526C8.00521 71.0234 7.90104 70.8516 7.76562 70.737C7.63021 70.612 7.44792 70.5287 7.21875 70.487C6.98958 70.4453 6.6875 70.4245 6.3125 70.4245H3.57812V74.8307C3.57812 75.0078 3.58854 75.138 3.60938 75.2214C3.63021 75.3047 3.66667 75.3672 3.71875 75.4089C3.80208 75.4609 4 75.5078 4.3125 75.5495C4.63542 75.5807 5.01562 75.5964 5.45312 75.5964H5.95312C6.58854 75.5964 7.11979 75.5651 7.54688 75.5026C7.98438 75.4401 8.35417 75.3203 8.65625 75.1432C8.96875 74.9662 9.23958 74.7266 9.46875 74.4245C9.69792 74.1224 9.92188 73.7266 10.1406 73.237H10.6562L9.84375 76.2526ZM23.3125 64.7995C23.1042 64.8099 22.9271 64.8359 22.7812 64.8776C22.6458 64.9089 22.5208 64.987 22.4062 65.112C22.2917 65.2266 22.1771 65.3932 22.0625 65.612C21.9583 65.8203 21.8281 66.1016 21.6719 66.4557L17.7188 76.4557H17.4531L13.0625 66.6589C12.8646 66.2526 12.6927 65.9297 12.5469 65.6901C12.4115 65.4505 12.276 65.2682 12.1406 65.1432C12.0156 65.0078 11.875 64.9193 11.7188 64.8776C11.5729 64.8255 11.3906 64.7995 11.1719 64.7995V64.4401H15.9375V64.7995L15.4062 64.8151C14.8542 64.8464 14.5781 65.0339 14.5781 65.3776C14.5781 65.4505 14.5885 65.5339 14.6094 65.6276C14.6302 65.7109 14.6667 65.8255 14.7188 65.9714C14.7708 66.1172 14.8438 66.2995 14.9375 66.5182C15.0312 66.737 15.1562 67.013 15.3125 67.3464L18 73.3776L20.6094 66.8464C20.7344 66.5651 20.8229 66.3099 20.875 66.0807C20.9375 65.8516 20.9688 65.6641 20.9688 65.5182C20.9688 65.4349 20.9427 65.3464 20.8906 65.2526C20.8385 65.1484 20.7708 65.0703 20.6875 65.0182C20.5729 64.9349 20.4479 64.8828 20.3125 64.862C20.1875 64.8307 19.974 64.8099 19.6719 64.7995V64.4401H23.3125V64.7995ZM33.6094 76.2526H23.9844V75.9245C24.3073 75.9037 24.5677 75.8672 24.7656 75.8151C24.974 75.763 25.1302 75.6797 25.2344 75.5651C25.349 75.4505 25.4271 75.2943 25.4688 75.0964C25.5104 74.8984 25.5312 74.6432 25.5312 74.3307V66.3932C25.5312 66.0807 25.5104 65.8255 25.4688 65.6276C25.4375 65.4297 25.3646 65.2734 25.25 65.1589C25.1354 65.0443 24.974 64.9609 24.7656 64.9089C24.5677 64.8568 24.3073 64.8203 23.9844 64.7995V64.4401H33.4531L33.4844 67.0026H33.0625C32.9792 66.5964 32.8854 66.2734 32.7812 66.0339C32.6771 65.7839 32.526 65.5912 32.3281 65.4557C32.1406 65.3203 31.8854 65.2318 31.5625 65.1901C31.25 65.1484 30.8438 65.1276 30.3438 65.1276H27.9375C27.6979 65.1276 27.5365 65.1641 27.4531 65.237C27.3802 65.3099 27.3438 65.4766 27.3438 65.737V69.6901H30.0781C30.4427 69.6901 30.7396 69.6693 30.9688 69.6276C31.1979 69.5859 31.3802 69.5078 31.5156 69.3932C31.6615 69.2682 31.7708 69.0964 31.8438 68.8776C31.9167 68.6589 31.9844 68.3672 32.0469 68.0026H32.4688V72.1432H32.0469C31.9844 71.7682 31.9167 71.4714 31.8438 71.2526C31.7708 71.0234 31.6667 70.8516 31.5312 70.737C31.3958 70.612 31.2135 70.5287 30.9844 70.487C30.7552 70.4453 30.4531 70.4245 30.0781 70.4245H27.3438V74.8307C27.3438 75.0078 27.3542 75.138 27.375 75.2214C27.3958 75.3047 27.4323 75.3672 27.4844 75.4089C27.5677 75.4609 27.7656 75.5078 28.0781 75.5495C28.401 75.5807 28.7812 75.5964 29.2188 75.5964H29.7188C30.3542 75.5964 30.8854 75.5651 31.3125 75.5026C31.75 75.4401 32.1198 75.3203 32.4219 75.1432C32.7344 74.9662 33.0052 74.7266 33.2344 74.4245C33.4635 74.1224 33.6875 73.7266 33.9062 73.237H34.4219L33.6094 76.2526ZM46.4062 76.2526H43.5312L39.2812 70.7526L38.2969 70.7995V74.3307C38.2969 74.6432 38.3125 74.8984 38.3438 75.0964C38.3854 75.2943 38.4635 75.4557 38.5781 75.5807C38.6927 75.6953 38.8542 75.7787 39.0625 75.8307C39.2708 75.8724 39.5469 75.9037 39.8906 75.9245V76.2526H34.9531V75.9245C35.2865 75.8932 35.5521 75.8516 35.75 75.7995C35.9583 75.7474 36.1146 75.6589 36.2188 75.5339C36.3229 75.4089 36.3906 75.237 36.4219 75.0182C36.4531 74.7891 36.4688 74.487 36.4688 74.112V66.3932C36.4688 66.0807 36.4531 65.8307 36.4219 65.6432C36.3906 65.4453 36.3229 65.2891 36.2188 65.1745C36.1146 65.0599 35.9583 64.9766 35.75 64.9245C35.5521 64.8724 35.2865 64.8307 34.9531 64.7995V64.4401H39.875C40.75 64.4401 41.5312 64.5599 42.2188 64.7995C42.9167 65.0287 43.4323 65.3412 43.7656 65.737C43.9844 65.9766 44.1458 66.2578 44.25 66.5807C44.3542 66.8932 44.4062 67.2318 44.4062 67.5964C44.4062 68.4089 44.151 69.0495 43.6406 69.5182C43.1406 69.987 42.3229 70.3359 41.1875 70.5651L44.8594 75.0964C45.1094 75.388 45.3438 75.5912 45.5625 75.7057C45.7917 75.8203 46.0729 75.8932 46.4062 75.9245V76.2526ZM38.2969 70.1432C38.7135 70.1328 39.0729 70.1172 39.375 70.0964C39.6875 70.0755 39.9583 70.0443 40.1875 70.0026C40.4271 69.9505 40.6458 69.888 40.8438 69.8151C41.0417 69.7422 41.2448 69.6484 41.4531 69.5339C41.776 69.3568 42.026 69.0964 42.2031 68.7526C42.3802 68.3984 42.4688 67.9974 42.4688 67.5495C42.4688 66.7057 42.2031 66.0912 41.6719 65.7057C41.151 65.3099 40.3177 65.112 39.1719 65.112C38.8177 65.112 38.5833 65.1589 38.4688 65.2526C38.3542 65.3359 38.2969 65.5026 38.2969 65.7526V70.1432ZM56.3906 76.2526H46.7656V75.9245C47.0885 75.9037 47.349 75.8672 47.5469 75.8151C47.7552 75.763 47.9115 75.6797 48.0156 75.5651C48.1302 75.4505 48.2083 75.2943 48.25 75.0964C48.2917 74.8984 48.3125 74.6432 48.3125 74.3307V66.3932C48.3125 66.0807 48.2917 65.8255 48.25 65.6276C48.2188 65.4297 48.1458 65.2734 48.0312 65.1589C47.9167 65.0443 47.7552 64.9609 47.5469 64.9089C47.349 64.8568 47.0885 64.8203 46.7656 64.7995V64.4401H56.2344L56.2656 67.0026H55.8438C55.7604 66.5964 55.6667 66.2734 55.5625 66.0339C55.4583 65.7839 55.3073 65.5912 55.1094 65.4557C54.9219 65.3203 54.6667 65.2318 54.3438 65.1901C54.0312 65.1484 53.625 65.1276 53.125 65.1276H50.7188C50.4792 65.1276 50.3177 65.1641 50.2344 65.237C50.1615 65.3099 50.125 65.4766 50.125 65.737V69.6901H52.8594C53.224 69.6901 53.5208 69.6693 53.75 69.6276C53.9792 69.5859 54.1615 69.5078 54.2969 69.3932C54.4427 69.2682 54.5521 69.0964 54.625 68.8776C54.6979 68.6589 54.7656 68.3672 54.8281 68.0026H55.25V72.1432H54.8281C54.7656 71.7682 54.6979 71.4714 54.625 71.2526C54.5521 71.0234 54.4479 70.8516 54.3125 70.737C54.1771 70.612 53.9948 70.5287 53.7656 70.487C53.5365 70.4453 53.2344 70.4245 52.8594 70.4245H50.125V74.8307C50.125 75.0078 50.1354 75.138 50.1562 75.2214C50.1771 75.3047 50.2135 75.3672 50.2656 75.4089C50.349 75.4609 50.5469 75.5078 50.8594 75.5495C51.1823 75.5807 51.5625 75.5964 52 75.5964H52.5C53.1354 75.5964 53.6667 75.5651 54.0938 75.5026C54.5312 75.4401 54.901 75.3203 55.2031 75.1432C55.5156 74.9662 55.7865 74.7266 56.0156 74.4245C56.2448 74.1224 56.4688 73.7266 56.6875 73.237H57.2031L56.3906 76.2526ZM65.7969 68.0026H65.3594C65.2865 67.7422 65.2135 67.513 65.1406 67.3151C65.0781 67.1172 65 66.9401 64.9062 66.7839C64.8229 66.6172 64.7292 66.4714 64.625 66.3464C64.5208 66.2109 64.401 66.0703 64.2656 65.9245C63.6406 65.2682 62.9115 64.9401 62.0781 64.9401C61.526 64.9401 61.0781 65.0859 60.7344 65.3776C60.401 65.6693 60.2344 66.0651 60.2344 66.5651C60.2344 67.0547 60.4375 67.513 60.8438 67.9401C61.25 68.3672 61.9167 68.8359 62.8438 69.3464C64.0312 69.9922 64.8854 70.6224 65.4062 71.237C65.9375 71.8516 66.2031 72.5234 66.2031 73.2526C66.2031 73.7109 66.1094 74.138 65.9219 74.5339C65.7344 74.9297 65.4792 75.2734 65.1562 75.5651C64.8333 75.8568 64.4479 76.0859 64 76.2526C63.5521 76.4193 63.0729 76.5026 62.5625 76.5026C62.1979 76.5026 61.8385 76.4714 61.4844 76.4089C61.1302 76.3464 60.7865 76.2422 60.4531 76.0964C60.276 76.0339 60.1146 75.987 59.9688 75.9557C59.8229 75.9141 59.7031 75.8932 59.6094 75.8932C59.474 75.8932 59.3594 75.9505 59.2656 76.0651C59.1719 76.1797 59.1198 76.3203 59.1094 76.487H58.7188L58.1875 72.7057H58.5938C59.0417 73.7995 59.5521 74.6016 60.125 75.112C60.6979 75.612 61.3906 75.862 62.2031 75.862C62.8594 75.862 63.3854 75.6797 63.7812 75.3151C64.1875 74.9505 64.3906 74.4714 64.3906 73.8776C64.3906 73.6484 64.3646 73.4453 64.3125 73.2682C64.2708 73.0912 64.2083 72.9401 64.125 72.8151C63.9167 72.4818 63.5833 72.138 63.125 71.7839C62.6771 71.4297 62.1354 71.0755 61.5 70.7214C61 70.4609 60.5729 70.2005 60.2188 69.9401C59.8646 69.6797 59.5729 69.4089 59.3438 69.1276C59.125 68.8464 58.9635 68.5547 58.8594 68.2526C58.7552 67.9505 58.7031 67.6224 58.7031 67.2682C58.7031 66.2787 59.0469 65.5078 59.7344 64.9557C60.026 64.7162 60.349 64.5339 60.7031 64.4089C61.0573 64.2734 61.4062 64.2057 61.75 64.2057C62.0625 64.2057 62.375 64.2422 62.6875 64.3151C63.0104 64.3776 63.3385 64.4714 63.6719 64.5964C63.8385 64.6693 63.9896 64.7214 64.125 64.7526C64.2604 64.7839 64.375 64.7995 64.4688 64.7995C64.7604 64.7995 64.9479 64.6016 65.0312 64.2057H65.4062L65.7969 68.0026ZM70.9219 65.1901C70.4219 65.1901 70.0104 65.2162 69.6875 65.2682C69.375 65.3203 69.1146 65.4297 68.9062 65.5964C68.7083 65.763 68.5469 65.9974 68.4219 66.2995C68.3073 66.5912 68.1979 66.9818 68.0938 67.4714H67.6562L67.7656 64.4401H77.8281L77.9375 67.4714H77.5C77.3958 66.9818 77.2812 66.5912 77.1562 66.2995C77.0417 65.9974 76.8854 65.763 76.6875 65.5964C76.4896 65.4297 76.2292 65.3203 75.9062 65.2682C75.5833 65.2162 75.1667 65.1901 74.6562 65.1901H73.7031V74.3307C73.7031 74.6537 73.724 74.9141 73.7656 75.112C73.8073 75.3099 73.8854 75.4662 74 75.5807C74.125 75.6953 74.2969 75.7787 74.5156 75.8307C74.7448 75.8724 75.0417 75.9037 75.4062 75.9245V76.2526H70.2188V75.9245C70.5833 75.9037 70.875 75.8724 71.0938 75.8307C71.3125 75.7787 71.4792 75.6901 71.5938 75.5651C71.7188 75.4297 71.7969 75.2474 71.8281 75.0182C71.8698 74.7891 71.8906 74.487 71.8906 74.112V65.1901H70.9219Z" fill="black"/>
</svg>
