<svg width="439" height="65" viewBox="0 0 439 65" fill="none" xmlns="http://www.w3.org/2000/svg">
<mask id="path-1-outside-1_17_2" maskUnits="userSpaceOnUse" x="-0.52002" y="-0.280029" width="439" height="65" fill="black">
<rect fill="white" x="-0.52002" y="-0.280029" width="439" height="65"/>
<path d="M45.8 63.72H0.999981V18.92L9.95998 9.95997H0.999981V0.999969H45.8V9.95997H11.24V35.56L18.92 27.88H45.8V36.84H11.24V54.76H45.8V63.72ZM121.32 0.999969L97.384 63.72H80.744L57.32 0.999969H68.84L88.04 55.016H90.6L109.8 0.999969H121.32ZM181.425 63.72H136.625V18.92L145.585 9.95997H136.625V0.999969H181.425V9.95997H146.865V35.56L154.545 27.88H181.425V36.84H146.865V54.76H181.425V63.72ZM255.665 63.72H242.609L215.985 36.84H244.145V9.95997H210.865V63.72H200.625V18.792L209.585 9.95997H200.625V0.999969H245.425C247.814 0.999969 249.905 1.89597 251.697 3.68797C253.489 5.47997 254.385 7.57064 254.385 9.95997V34.28C254.385 41.1066 251.398 44.52 245.425 44.52H237.745V45.928L255.665 63.72ZM319.05 63.72H274.25V18.92L283.21 9.95997H274.25V0.999969H319.05V9.95997H284.49V35.56L292.17 27.88H319.05V36.84H284.49V54.76H319.05V63.72ZM380.49 54.76C380.49 57.2346 379.594 59.368 377.802 61.16C376.095 62.8666 374.005 63.72 371.53 63.72H335.69V54.76H370.25V36.84H344.65C342.175 36.84 340.042 35.9866 338.25 34.28C336.543 32.488 335.69 30.3546 335.69 27.88V9.95997C335.69 7.4853 336.543 5.39463 338.25 3.68797C340.042 1.89597 342.175 0.999969 344.65 0.999969H380.49V9.95997H345.93V27.88H371.53C374.005 27.88 376.095 28.776 377.802 30.568C379.594 32.2746 380.49 34.3653 380.49 36.84V54.76ZM437.48 9.95997H418.92V63.72H408.68V9.95997H390.12V0.999969H437.48V9.95997Z"/>
</mask>
<path d="M45.8 63.72H0.999981V18.92L9.95998 9.95997H0.999981V0.999969H45.8V9.95997H11.24V35.56L18.92 27.88H45.8V36.84H11.24V54.76H45.8V63.72ZM121.32 0.999969L97.384 63.72H80.744L57.32 0.999969H68.84L88.04 55.016H90.6L109.8 0.999969H121.32ZM181.425 63.72H136.625V18.92L145.585 9.95997H136.625V0.999969H181.425V9.95997H146.865V35.56L154.545 27.88H181.425V36.84H146.865V54.76H181.425V63.72ZM255.665 63.72H242.609L215.985 36.84H244.145V9.95997H210.865V63.72H200.625V18.792L209.585 9.95997H200.625V0.999969H245.425C247.814 0.999969 249.905 1.89597 251.697 3.68797C253.489 5.47997 254.385 7.57064 254.385 9.95997V34.28C254.385 41.1066 251.398 44.52 245.425 44.52H237.745V45.928L255.665 63.72ZM319.05 63.72H274.25V18.92L283.21 9.95997H274.25V0.999969H319.05V9.95997H284.49V35.56L292.17 27.88H319.05V36.84H284.49V54.76H319.05V63.72ZM380.49 54.76C380.49 57.2346 379.594 59.368 377.802 61.16C376.095 62.8666 374.005 63.72 371.53 63.72H335.69V54.76H370.25V36.84H344.65C342.175 36.84 340.042 35.9866 338.25 34.28C336.543 32.488 335.69 30.3546 335.69 27.88V9.95997C335.69 7.4853 336.543 5.39463 338.25 3.68797C340.042 1.89597 342.175 0.999969 344.65 0.999969H380.49V9.95997H345.93V27.88H371.53C374.005 27.88 376.095 28.776 377.802 30.568C379.594 32.2746 380.49 34.3653 380.49 36.84V54.76ZM437.48 9.95997H418.92V63.72H408.68V9.95997H390.12V0.999969H437.48V9.95997Z" fill="url(#paint0_linear_17_2)"/>
<path d="M45.8 63.72V64.72H46.8V63.72H45.8ZM0.999981 63.72H-1.90735e-05V64.72H0.999981V63.72ZM0.999981 18.92L0.292874 18.2129L-1.90735e-05 18.5058V18.92H0.999981ZM9.95998 9.95997L10.6671 10.6671L12.3742 8.95997H9.95998V9.95997ZM0.999981 9.95997H-1.90735e-05V10.96H0.999981V9.95997ZM0.999981 0.999969V-3.05176e-05H-1.90735e-05V0.999969H0.999981ZM45.8 0.999969H46.8V-3.05176e-05H45.8V0.999969ZM45.8 9.95997V10.96H46.8V9.95997H45.8ZM11.24 9.95997V8.95997H10.24V9.95997H11.24ZM11.24 35.56H10.24V37.9742L11.9471 36.2671L11.24 35.56ZM18.92 27.88V26.88H18.5058L18.2129 27.1729L18.92 27.88ZM45.8 27.88H46.8V26.88H45.8V27.88ZM45.8 36.84V37.84H46.8V36.84H45.8ZM11.24 36.84V35.84H10.24V36.84H11.24ZM11.24 54.76H10.24V55.76H11.24V54.76ZM45.8 54.76H46.8V53.76H45.8V54.76ZM45.8 63.72V62.72H0.999981V63.72V64.72H45.8V63.72ZM0.999981 63.72H1.99998V18.92H0.999981H-1.90735e-05V63.72H0.999981ZM0.999981 18.92L1.70709 19.6271L10.6671 10.6671L9.95998 9.95997L9.25287 9.25286L0.292874 18.2129L0.999981 18.92ZM9.95998 9.95997V8.95997H0.999981V9.95997V10.96H9.95998V9.95997ZM0.999981 9.95997H1.99998V0.999969H0.999981H-1.90735e-05V9.95997H0.999981ZM0.999981 0.999969V1.99997H45.8V0.999969V-3.05176e-05H0.999981V0.999969ZM45.8 0.999969H44.8V9.95997H45.8H46.8V0.999969H45.8ZM45.8 9.95997V8.95997H11.24V9.95997V10.96H45.8V9.95997ZM11.24 9.95997H10.24V35.56H11.24H12.24V9.95997H11.24ZM11.24 35.56L11.9471 36.2671L19.6271 28.5871L18.92 27.88L18.2129 27.1729L10.5329 34.8529L11.24 35.56ZM18.92 27.88V28.88H45.8V27.88V26.88H18.92V27.88ZM45.8 27.88H44.8V36.84H45.8H46.8V27.88H45.8ZM45.8 36.84V35.84H11.24V36.84V37.84H45.8V36.84ZM11.24 36.84H10.24V54.76H11.24H12.24V36.84H11.24ZM11.24 54.76V55.76H45.8V54.76V53.76H11.24V54.76ZM45.8 54.76H44.8V63.72H45.8H46.8V54.76H45.8ZM121.32 0.999969L122.254 1.35652L122.772 -3.05176e-05H121.32V0.999969ZM97.384 63.72V64.72H98.0727L98.3183 64.0765L97.384 63.72ZM80.744 63.72L79.8072 64.0698L80.05 64.72H80.744V63.72ZM57.32 0.999969V-3.05176e-05H55.879L56.3832 1.34983L57.32 0.999969ZM68.84 0.999969L69.7822 0.665047L69.5458 -3.05176e-05H68.84V0.999969ZM88.04 55.016L87.0977 55.3509L87.3341 56.016H88.04V55.016ZM90.6 55.016V56.016H91.3058L91.5422 55.3509L90.6 55.016ZM109.8 0.999969V-3.05176e-05H109.094L108.858 0.665047L109.8 0.999969ZM121.32 0.999969L120.386 0.643417L96.4497 63.3634L97.384 63.72L98.3183 64.0765L122.254 1.35652L121.32 0.999969ZM97.384 63.72V62.72H80.744V63.72V64.72H97.384V63.72ZM80.744 63.72L81.6808 63.3701L58.2568 0.650105L57.32 0.999969L56.3832 1.34983L79.8072 64.0698L80.744 63.72ZM57.32 0.999969V1.99997H68.84V0.999969V-3.05176e-05H57.32V0.999969ZM68.84 0.999969L67.8977 1.33489L87.0977 55.3509L88.04 55.016L88.9822 54.681L69.7822 0.665047L68.84 0.999969ZM88.04 55.016V56.016H90.6V55.016V54.016H88.04V55.016ZM90.6 55.016L91.5422 55.3509L110.742 1.33489L109.8 0.999969L108.858 0.665047L89.6577 54.681L90.6 55.016ZM109.8 0.999969V1.99997H121.32V0.999969V-3.05176e-05H109.8V0.999969ZM181.425 63.72V64.72H182.425V63.72H181.425ZM136.625 63.72H135.625V64.72H136.625V63.72ZM136.625 18.92L135.918 18.2129L135.625 18.5058V18.92H136.625ZM145.585 9.95997L146.292 10.6671L147.999 8.95997H145.585V9.95997ZM136.625 9.95997H135.625V10.96H136.625V9.95997ZM136.625 0.999969V-3.05176e-05H135.625V0.999969H136.625ZM181.425 0.999969H182.425V-3.05176e-05H181.425V0.999969ZM181.425 9.95997V10.96H182.425V9.95997H181.425ZM146.865 9.95997V8.95997H145.865V9.95997H146.865ZM146.865 35.56H145.865V37.9742L147.572 36.2671L146.865 35.56ZM154.545 27.88V26.88H154.131L153.838 27.1729L154.545 27.88ZM181.425 27.88H182.425V26.88H181.425V27.88ZM181.425 36.84V37.84H182.425V36.84H181.425ZM146.865 36.84V35.84H145.865V36.84H146.865ZM146.865 54.76H145.865V55.76H146.865V54.76ZM181.425 54.76H182.425V53.76H181.425V54.76ZM181.425 63.72V62.72H136.625V63.72V64.72H181.425V63.72ZM136.625 63.72H137.625V18.92H136.625H135.625V63.72H136.625ZM136.625 18.92L137.332 19.6271L146.292 10.6671L145.585 9.95997L144.878 9.25286L135.918 18.2129L136.625 18.92ZM145.585 9.95997V8.95997H136.625V9.95997V10.96H145.585V9.95997ZM136.625 9.95997H137.625V0.999969H136.625H135.625V9.95997H136.625ZM136.625 0.999969V1.99997H181.425V0.999969V-3.05176e-05H136.625V0.999969ZM181.425 0.999969H180.425V9.95997H181.425H182.425V0.999969H181.425ZM181.425 9.95997V8.95997H146.865V9.95997V10.96H181.425V9.95997ZM146.865 9.95997H145.865V35.56H146.865H147.865V9.95997H146.865ZM146.865 35.56L147.572 36.2671L155.252 28.5871L154.545 27.88L153.838 27.1729L146.158 34.8529L146.865 35.56ZM154.545 27.88V28.88H181.425V27.88V26.88H154.545V27.88ZM181.425 27.88H180.425V36.84H181.425H182.425V27.88H181.425ZM181.425 36.84V35.84H146.865V36.84V37.84H181.425V36.84ZM146.865 36.84H145.865V54.76H146.865H147.865V36.84H146.865ZM146.865 54.76V55.76H181.425V54.76V53.76H146.865V54.76ZM181.425 54.76H180.425V63.72H181.425H182.425V54.76H181.425ZM255.665 63.72V64.72H258.091L256.37 63.0103L255.665 63.72ZM242.609 63.72L241.898 64.4237L242.192 64.72H242.609V63.72ZM215.985 36.84V35.84H213.587L215.275 37.5437L215.985 36.84ZM244.145 36.84V37.84H245.145V36.84H244.145ZM244.145 9.95997H245.145V8.95997H244.145V9.95997ZM210.865 9.95997V8.95997H209.865V9.95997H210.865ZM210.865 63.72V64.72H211.865V63.72H210.865ZM200.625 63.72H199.625V64.72H200.625V63.72ZM200.625 18.792L199.923 18.0798L199.625 18.3735V18.792H200.625ZM209.585 9.95997L210.287 10.6721L212.024 8.95997H209.585V9.95997ZM200.625 9.95997H199.625V10.96H200.625V9.95997ZM200.625 0.999969V-3.05176e-05H199.625V0.999969H200.625ZM251.697 3.68797L250.99 4.39508V4.39508L251.697 3.68797ZM237.745 44.52V43.52H236.745V44.52H237.745ZM237.745 45.928H236.745V46.3443L237.04 46.6376L237.745 45.928ZM255.665 63.72V62.72H242.609V63.72V64.72H255.665V63.72ZM242.609 63.72L243.319 63.0163L216.695 36.1363L215.985 36.84L215.275 37.5437L241.898 64.4237L242.609 63.72ZM215.985 36.84V37.84H244.145V36.84V35.84H215.985V36.84ZM244.145 36.84H245.145V9.95997H244.145H243.145V36.84H244.145ZM244.145 9.95997V8.95997H210.865V9.95997V10.96H244.145V9.95997ZM210.865 9.95997H209.865V63.72H210.865H211.865V9.95997H210.865ZM210.865 63.72V62.72H200.625V63.72V64.72H210.865V63.72ZM200.625 63.72H201.625V18.792H200.625H199.625V63.72H200.625ZM200.625 18.792L201.327 19.5041L210.287 10.6721L209.585 9.95997L208.883 9.24779L199.923 18.0798L200.625 18.792ZM209.585 9.95997V8.95997H200.625V9.95997V10.96H209.585V9.95997ZM200.625 9.95997H201.625V0.999969H200.625H199.625V9.95997H200.625ZM200.625 0.999969V1.99997H245.425V0.999969V-3.05176e-05H200.625V0.999969ZM245.425 0.999969V1.99997C247.532 1.99997 249.373 2.77799 250.99 4.39508L251.697 3.68797L252.404 2.98086C250.437 1.01395 248.097 -3.05176e-05 245.425 -3.05176e-05V0.999969ZM251.697 3.68797L250.99 4.39508C252.607 6.01217 253.385 7.85319 253.385 9.95997H254.385H255.385C255.385 7.28808 254.371 4.94777 252.404 2.98086L251.697 3.68797ZM254.385 9.95997H253.385V34.28H254.385H255.385V9.95997H254.385ZM254.385 34.28H253.385C253.385 37.5695 252.663 39.8499 251.392 41.3015C250.145 42.7275 248.22 43.52 245.425 43.52V44.52V45.52C248.603 45.52 251.159 44.6058 252.898 42.6185C254.614 40.6567 255.385 37.8171 255.385 34.28H254.385ZM245.425 44.52V43.52H237.745V44.52V45.52H245.425V44.52ZM237.745 44.52H236.745V45.928H237.745H238.745V44.52H237.745ZM237.745 45.928L237.04 46.6376L254.96 64.4296L255.665 63.72L256.37 63.0103L238.45 45.2183L237.745 45.928ZM319.05 63.72V64.72H320.05V63.72H319.05ZM274.25 63.72H273.25V64.72H274.25V63.72ZM274.25 18.92L273.543 18.2129L273.25 18.5058V18.92H274.25ZM283.21 9.95997L283.917 10.6671L285.624 8.95997H283.21V9.95997ZM274.25 9.95997H273.25V10.96H274.25V9.95997ZM274.25 0.999969V-3.05176e-05H273.25V0.999969H274.25ZM319.05 0.999969H320.05V-3.05176e-05H319.05V0.999969ZM319.05 9.95997V10.96H320.05V9.95997H319.05ZM284.49 9.95997V8.95997H283.49V9.95997H284.49ZM284.49 35.56H283.49V37.9742L285.197 36.2671L284.49 35.56ZM292.17 27.88V26.88H291.756L291.463 27.1729L292.17 27.88ZM319.05 27.88H320.05V26.88H319.05V27.88ZM319.05 36.84V37.84H320.05V36.84H319.05ZM284.49 36.84V35.84H283.49V36.84H284.49ZM284.49 54.76H283.49V55.76H284.49V54.76ZM319.05 54.76H320.05V53.76H319.05V54.76ZM319.05 63.72V62.72H274.25V63.72V64.72H319.05V63.72ZM274.25 63.72H275.25V18.92H274.25H273.25V63.72H274.25ZM274.25 18.92L274.957 19.6271L283.917 10.6671L283.21 9.95997L282.503 9.25286L273.543 18.2129L274.25 18.92ZM283.21 9.95997V8.95997H274.25V9.95997V10.96H283.21V9.95997ZM274.25 9.95997H275.25V0.999969H274.25H273.25V9.95997H274.25ZM274.25 0.999969V1.99997H319.05V0.999969V-3.05176e-05H274.25V0.999969ZM319.05 0.999969H318.05V9.95997H319.05H320.05V0.999969H319.05ZM319.05 9.95997V8.95997H284.49V9.95997V10.96H319.05V9.95997ZM284.49 9.95997H283.49V35.56H284.49H285.49V9.95997H284.49ZM284.49 35.56L285.197 36.2671L292.877 28.5871L292.17 27.88L291.463 27.1729L283.783 34.8529L284.49 35.56ZM292.17 27.88V28.88H319.05V27.88V26.88H292.17V27.88ZM319.05 27.88H318.05V36.84H319.05H320.05V27.88H319.05ZM319.05 36.84V35.84H284.49V36.84V37.84H319.05V36.84ZM284.49 36.84H283.49V54.76H284.49H285.49V36.84H284.49ZM284.49 54.76V55.76H319.05V54.76V53.76H284.49V54.76ZM319.05 54.76H318.05V63.72H319.05H320.05V54.76H319.05ZM377.802 61.16L378.509 61.8671V61.8671L377.802 61.16ZM335.69 63.72H334.69V64.72H335.69V63.72ZM335.69 54.76V53.76H334.69V54.76H335.69ZM370.25 54.76V55.76H371.25V54.76H370.25ZM370.25 36.84H371.25V35.84H370.25V36.84ZM338.25 34.28L337.526 34.9696L337.543 34.9873L337.56 35.0041L338.25 34.28ZM338.25 3.68797L338.957 4.39508V4.39508L338.25 3.68797ZM380.49 0.999969H381.49V-3.05176e-05H380.49V0.999969ZM380.49 9.95997V10.96H381.49V9.95997H380.49ZM345.93 9.95997V8.95997H344.93V9.95997H345.93ZM345.93 27.88H344.93V28.88H345.93V27.88ZM377.802 30.568L377.078 31.2576L377.095 31.2753L377.112 31.2921L377.802 30.568ZM380.49 54.76H379.49C379.49 56.9623 378.704 58.8433 377.095 60.4529L377.802 61.16L378.509 61.8671C380.484 59.8926 381.49 57.5069 381.49 54.76H380.49ZM377.802 61.16L377.095 60.4529C375.581 61.9667 373.747 62.72 371.53 62.72V63.72V64.72C374.262 64.72 376.61 63.7665 378.509 61.8671L377.802 61.16ZM371.53 63.72V62.72H335.69V63.72V64.72H371.53V63.72ZM335.69 63.72H336.69V54.76H335.69H334.69V63.72H335.69ZM335.69 54.76V55.76H370.25V54.76V53.76H335.69V54.76ZM370.25 54.76H371.25V36.84H370.25H369.25V54.76H370.25ZM370.25 36.84V35.84H344.65V36.84V37.84H370.25V36.84ZM344.65 36.84V35.84C342.432 35.84 340.546 35.0854 338.94 33.5558L338.25 34.28L337.56 35.0041C339.538 36.8879 341.919 37.84 344.65 37.84V36.84ZM338.25 34.28L338.974 33.5903C337.445 31.9843 336.69 30.0979 336.69 27.88H335.69H334.69C334.69 30.6114 335.642 32.9917 337.526 34.9696L338.25 34.28ZM335.69 27.88H336.69V9.95997H335.69H334.69V27.88H335.69ZM335.69 9.95997H336.69C336.69 7.743 337.443 5.90896 338.957 4.39508L338.25 3.68797L337.543 2.98086C335.643 4.88031 334.69 7.2276 334.69 9.95997H335.69ZM338.25 3.68797L338.957 4.39508C340.567 2.78555 342.448 1.99997 344.65 1.99997V0.999969V-3.05176e-05C341.903 -3.05176e-05 339.517 1.00639 337.543 2.98086L338.25 3.68797ZM344.65 0.999969V1.99997H380.49V0.999969V-3.05176e-05H344.65V0.999969ZM380.49 0.999969H379.49V9.95997H380.49H381.49V0.999969H380.49ZM380.49 9.95997V8.95997H345.93V9.95997V10.96H380.49V9.95997ZM345.93 9.95997H344.93V27.88H345.93H346.93V9.95997H345.93ZM345.93 27.88V28.88H371.53V27.88V26.88H345.93V27.88ZM371.53 27.88V28.88C373.731 28.88 375.56 29.6638 377.078 31.2576L377.802 30.568L378.526 29.8783C376.631 27.8881 374.278 26.88 371.53 26.88V27.88ZM377.802 30.568L377.112 31.2921C378.706 32.81 379.49 34.639 379.49 36.84H380.49H381.49C381.49 34.0916 380.482 31.7392 378.492 29.8438L377.802 30.568ZM380.49 36.84H379.49V54.76H380.49H381.49V36.84H380.49ZM437.48 9.95997V10.96H438.48V9.95997H437.48ZM418.92 9.95997V8.95997H417.92V9.95997H418.92ZM418.92 63.72V64.72H419.92V63.72H418.92ZM408.68 63.72H407.68V64.72H408.68V63.72ZM408.68 9.95997H409.68V8.95997H408.68V9.95997ZM390.12 9.95997H389.12V10.96H390.12V9.95997ZM390.12 0.999969V-3.05176e-05H389.12V0.999969H390.12ZM437.48 0.999969H438.48V-3.05176e-05H437.48V0.999969ZM437.48 9.95997V8.95997H418.92V9.95997V10.96H437.48V9.95997ZM418.92 9.95997H417.92V63.72H418.92H419.92V9.95997H418.92ZM418.92 63.72V62.72H408.68V63.72V64.72H418.92V63.72ZM408.68 63.72H409.68V9.95997H408.68H407.68V63.72H408.68ZM408.68 9.95997V8.95997H390.12V9.95997V10.96H408.68V9.95997ZM390.12 9.95997H391.12V0.999969H390.12H389.12V9.95997H390.12ZM390.12 0.999969V1.99997H437.48V0.999969V-3.05176e-05H390.12V0.999969ZM437.48 0.999969H436.48V9.95997H437.48H438.48V0.999969H437.48Z" fill="#AEAEAE" fill-opacity="0.5" mask="url(#path-1-outside-1_17_2)"/>
<defs>
<linearGradient id="paint0_linear_17_2" x1="213.98" y1="91.72" x2="213.98" y2="-32.28" gradientUnits="userSpaceOnUse">
<stop stop-color="#8185D4"/>
<stop offset="1" stop-color="#AAEFFF"/>
</linearGradient>
</defs>
</svg>
